<svg width="18" height="18" viewBox="0 0 18 18" fill="none" xmlns="http://www.w3.org/2000/svg">
<path d="M17.125 5.02588C17.1258 4.41255 16.8876 3.83588 16.4534 3.40255L14.5967 1.54596C14.1626 1.11263 13.5876 0.873436 12.9734 0.87427C12.3601 0.875103 11.7842 1.11505 11.3525 1.54922L1.0575 11.8917C0.939995 12.0092 0.875 12.1676 0.875 12.3326V16.4993C0.875 16.8443 1.155 17.1243 1.5 17.1243H5.66667C5.83167 17.1243 5.99088 17.0584 6.10754 16.9426L16.45 6.64677C16.885 6.2151 17.1242 5.63921 17.125 5.02588ZM5.40828 15.8751H2.125V12.5918L9.6191 5.06342L12.9376 8.38088L5.40828 15.8751ZM15.5684 5.76176L13.8234 7.49923L10.5009 4.17759L12.2383 2.43179C12.435 2.23429 12.6967 2.12592 12.9758 2.12508H12.9766C13.255 2.12508 13.5167 2.23339 13.7142 2.43006L15.5708 4.28675C15.7675 4.48425 15.8758 4.7459 15.8758 5.02507C15.875 5.3034 15.7659 5.56509 15.5684 5.76176ZM17.125 16.5001C17.125 16.8451 16.845 17.1251 16.5 17.1251H10.6667C10.3217 17.1251 10.0417 16.8451 10.0417 16.5001C10.0417 16.1551 10.3217 15.8751 10.6667 15.8751H16.5C16.845 15.8751 17.125 16.1551 17.125 16.5001Z" fill="#6B7280"/>
</svg>
